# xmcd
#
# Track frame offsets:
#	150
#	13665
#	33402
#	62455
#	89650
#	112895
#	136222
#	152330
#	178297
#	211760
#	239570
#
# Disc length: 3628 seconds
#
# Revision: 1
# Processed by: cddbd v1.5.1PL0 Copyright (c) Steve Scherf et al.
# Submitted via: CDex 1.50Beta5
#
DISCID=8b0e2a0b
DTITLE=ARB - 武道館LIVE〜’99.1.24 Days of ARB〜 Disc 1
DYEAR=2000
DGENRE=Rock
TTITLE0=魂こがして
TTITLE1=淋しい街から
TTITLE2=DREAMING BABY
TTITLE3=抵抗の詩
TTITLE4=PALL MALLに火をつけて
TTITLE5=さらば相棒
TTITLE6=Heavy Days
TTITLE7=灰色の水曜日
TTITLE8=ファクトリー
TTITLE9=Blue Color Dancer
TTITLE10=OH!PLEASE
EXTD=
EXTT0=
EXTT1=
EXTT2=
EXTT3=
EXTT4=
EXTT5=
EXTT6=
EXTT7=
EXTT8=
EXTT9=
EXTT10=
PLAYORDER=
